<mxfile host="app.diagrams.net" modified="2020-07-18T02:05:57.803Z" agent="5.0 (Windows NT 10.0; Win64; x64) AppleWebKit/537.36 (KHTML, like Gecko) Chrome/81.0.4044.142 Safari/537.36" etag="tzABUt36BWWFRIqDM59u" version="13.4.6" type="github" pages="2">
  <diagram name="Page-1" id="2c0d36ab-eaac-3732-788b-9136903baeff">
    <mxGraphModel dx="3082" dy="614" grid="1" gridSize="10" guides="1" tooltips="1" connect="1" arrows="1" fold="1" page="1" pageScale="1.5" pageWidth="1390" pageHeight="980" background="#ffffff" math="0" shadow="0">
      <root>
        <mxCell id="0" />
        <mxCell id="1" parent="0" />
        <mxCell id="123" value="" style="fillColor=#AE4132;strokeColor=none;opacity=30;" parent="1" vertex="1">
          <mxGeometry x="747" y="175.50000000000003" width="210" height="99.99999999999994" as="geometry" />
        </mxCell>
        <mxCell id="122" value="" style="fillColor=#10739E;strokeColor=none;opacity=30;rotation=-90;" parent="1" vertex="1">
          <mxGeometry x="830" y="-430" width="190" height="1572.25" as="geometry" />
        </mxCell>
        <mxCell id="121" value="" style="fillColor=#F2931E;strokeColor=none;opacity=30;" parent="1" vertex="1">
          <mxGeometry x="1588" y="705.5" width="150" height="270" as="geometry" />
        </mxCell>
        <mxCell id="120" value="" style="fillColor=#F2931E;strokeColor=none;opacity=30;" parent="1" vertex="1">
          <mxGeometry x="998" y="445.5" width="150" height="90" as="geometry" />
        </mxCell>
        <mxCell id="119" value="" style="fillColor=#F2931E;strokeColor=none;opacity=30;" parent="1" vertex="1">
          <mxGeometry x="788" y="705.5" width="150" height="270" as="geometry" />
        </mxCell>
        <mxCell id="118" value="" style="fillColor=#F2931E;strokeColor=none;opacity=30;" parent="1" vertex="1">
          <mxGeometry x="258.0000000000001" y="445.5000000000002" width="149.99999999999991" height="439.9999999999998" as="geometry" />
        </mxCell>
        <mxCell id="117" value="" style="fillColor=#F2931E;strokeColor=none;opacity=30;" parent="1" vertex="1">
          <mxGeometry x="408" y="535.5" width="1330" height="170" as="geometry" />
        </mxCell>
        <mxCell id="116" value="" style="fillColor=#10739E;strokeColor=none;opacity=30;" parent="1" vertex="1">
          <mxGeometry x="1588" y="985.5000000000002" width="150" height="80" as="geometry" />
        </mxCell>
        <mxCell id="115" value="" style="fillColor=#10739E;strokeColor=none;opacity=30;" parent="1" vertex="1">
          <mxGeometry x="1238" y="715.5" width="330" height="80" as="geometry" />
        </mxCell>
        <mxCell id="114" value="" style="fillColor=#10739E;strokeColor=none;opacity=30;" parent="1" vertex="1">
          <mxGeometry x="787.9999999999999" y="985.5000000000001" width="150" height="80" as="geometry" />
        </mxCell>
        <mxCell id="113" value="" style="fillColor=#10739E;strokeColor=none;opacity=30;" parent="1" vertex="1">
          <mxGeometry x="438.00000000000006" y="715.5000000000001" width="329.99999999999994" height="80" as="geometry" />
        </mxCell>
        <mxCell id="112" value="" style="fillColor=#10739E;strokeColor=none;opacity=30;" parent="1" vertex="1">
          <mxGeometry x="258" y="895.5" width="150" height="80" as="geometry" />
        </mxCell>
        <mxCell id="110" value="" style="fillColor=#12AAB5;strokeColor=none;opacity=30;" parent="1" vertex="1">
          <mxGeometry x="1238" y="445.5000000000001" width="500" height="80" as="geometry" />
        </mxCell>
        <mxCell id="109" value="" style="fillColor=#12AAB5;strokeColor=none;opacity=30;" parent="1" vertex="1">
          <mxGeometry x="438" y="445.5" width="500" height="80" as="geometry" />
        </mxCell>
        <mxCell id="108" value="" style="fillColor=#12AAB5;strokeColor=none;opacity=30;" parent="1" vertex="1">
          <mxGeometry x="-29.999999999999986" y="255.5" width="150" height="80" as="geometry" />
        </mxCell>
        <mxCell id="2" value="Head of Development" style="rounded=1;fillColor=#23445D;gradientColor=none;strokeColor=none;fontColor=#FFFFFF;fontStyle=1;fontFamily=Tahoma;fontSize=14" parent="1" vertex="1">
          <mxGeometry x="788" y="185.5" width="190" height="80" as="geometry" />
        </mxCell>
        <mxCell id="4" value="Training Department" style="rounded=1;fillColor=#23445D;gradientColor=none;strokeColor=none;fontColor=#FFFFFF;fontStyle=1;fontFamily=Tahoma;fontSize=14" parent="1" vertex="1">
          <mxGeometry x="1392.9999999999998" y="335.5" width="190" height="80" as="geometry" />
        </mxCell>
        <mxCell id="9" value="" style="edgeStyle=elbowEdgeStyle;elbow=vertical;strokeWidth=2;rounded=0" parent="1" source="2" target="4" edge="1">
          <mxGeometry x="368" y="215.5" width="100" height="100" as="geometry">
            <mxPoint x="368" y="315.5" as="sourcePoint" />
            <mxPoint x="468" y="215.5" as="targetPoint" />
          </mxGeometry>
        </mxCell>
        <mxCell id="10" value="1対複数" style="rounded=1;fillColor=#23445D;gradientColor=none;strokeColor=none;fontColor=#FFFFFF;fontStyle=1;fontFamily=Tahoma;fontSize=14" parent="1" vertex="1">
          <mxGeometry x="978" y="335.5" width="190" height="80" as="geometry" />
        </mxCell>
        <mxCell id="QBgoFv1q9CA9GYNlwteV-124" style="edgeStyle=orthogonalEdgeStyle;rounded=0;orthogonalLoop=1;jettySize=auto;html=1;exitX=0;exitY=1;exitDx=0;exitDy=0;" edge="1" parent="1" source="12">
          <mxGeometry relative="1" as="geometry">
            <mxPoint x="892.5729986976421" y="432.25499999999965" as="targetPoint" />
          </mxGeometry>
        </mxCell>
        <mxCell id="12" value="1対1" style="rounded=1;fillColor=#23445D;gradientColor=none;strokeColor=none;fontColor=#FFFFFF;fontStyle=1;fontFamily=Tahoma;fontSize=14" parent="1" vertex="1">
          <mxGeometry x="592.9999999999999" y="335.5" width="190" height="80" as="geometry" />
        </mxCell>
        <mxCell id="13" value="個人完結テーマ" style="rounded=1;fillColor=#23445D;gradientColor=none;strokeColor=none;fontColor=#FFFFFF;fontStyle=1;fontFamily=Tahoma;fontSize=14" parent="1" vertex="1">
          <mxGeometry x="138" y="335.5" width="190" height="80" as="geometry" />
        </mxCell>
        <mxCell id="14" value="家づくり" style="rounded=1;fillColor=#23445D;gradientColor=none;strokeColor=none;fontColor=#FFFFFF;fontStyle=1;fontFamily=Tahoma;fontSize=14" parent="1" vertex="1">
          <mxGeometry x="-73" y="445.5" width="130" height="60" as="geometry" />
        </mxCell>
        <mxCell id="16" value="Programming" style="rounded=1;fillColor=#23445D;gradientColor=none;strokeColor=none;fontColor=#FFFFFF;fontStyle=1;fontFamily=Tahoma;fontSize=14" parent="1" vertex="1">
          <mxGeometry x="268" y="455.5" width="130" height="60" as="geometry" />
        </mxCell>
        <mxCell id="17" value="HTTP" style="rounded=1;fillColor=#23445D;gradientColor=none;strokeColor=none;fontColor=#FFFFFF;fontStyle=1;fontFamily=Tahoma;fontSize=14" parent="1" vertex="1">
          <mxGeometry x="268" y="545.5" width="130" height="60" as="geometry" />
        </mxCell>
        <mxCell id="18" value="HTS" style="rounded=1;fillColor=#23445D;gradientColor=none;strokeColor=none;fontColor=#FFFFFF;fontStyle=1;fontFamily=Tahoma;fontSize=14" parent="1" vertex="1">
          <mxGeometry x="268" y="635.5" width="130" height="60" as="geometry" />
        </mxCell>
        <mxCell id="19" value="CVS" style="rounded=1;fillColor=#23445D;gradientColor=none;strokeColor=none;fontColor=#FFFFFF;fontStyle=1;fontFamily=Tahoma;fontSize=14" parent="1" vertex="1">
          <mxGeometry x="268" y="725.5" width="130" height="60" as="geometry" />
        </mxCell>
        <mxCell id="20" value="Client / Server" style="rounded=1;fillColor=#23445D;gradientColor=none;strokeColor=none;fontColor=#FFFFFF;fontStyle=1;fontFamily=Tahoma;fontSize=14" parent="1" vertex="1">
          <mxGeometry x="268" y="815.5" width="130" height="60" as="geometry" />
        </mxCell>
        <mxCell id="23" value="Data Collection" style="rounded=1;fillColor=#23445D;gradientColor=none;strokeColor=none;fontColor=#FFFFFF;fontStyle=1;fontFamily=Tahoma;fontSize=14" parent="1" vertex="1">
          <mxGeometry x="268" y="905.4999999999999" width="130" height="60" as="geometry" />
        </mxCell>
        <mxCell id="25" value="SI" style="rounded=1;fillColor=#23445D;gradientColor=none;strokeColor=none;fontColor=#FFFFFF;fontStyle=1;fontFamily=Tahoma;fontSize=14" parent="1" vertex="1">
          <mxGeometry x="448" y="455.5" width="130" height="60" as="geometry" />
        </mxCell>
        <mxCell id="26" value="Programming" style="rounded=1;fillColor=#23445D;gradientColor=none;strokeColor=none;fontColor=#FFFFFF;fontStyle=1;fontFamily=Tahoma;fontSize=14" parent="1" vertex="1">
          <mxGeometry x="448" y="545.5" width="130" height="60" as="geometry" />
        </mxCell>
        <mxCell id="27" value="Client / Server" style="rounded=1;fillColor=#23445D;gradientColor=none;strokeColor=none;fontColor=#FFFFFF;fontStyle=1;fontFamily=Tahoma;fontSize=14" parent="1" vertex="1">
          <mxGeometry x="448" y="635.5" width="130" height="60" as="geometry" />
        </mxCell>
        <mxCell id="28" value="Data Collection" style="rounded=1;fillColor=#23445D;gradientColor=none;strokeColor=none;fontColor=#FFFFFF;fontStyle=1;fontFamily=Tahoma;fontSize=14" parent="1" vertex="1">
          <mxGeometry x="448" y="725.5" width="130" height="60" as="geometry" />
        </mxCell>
        <mxCell id="29" value="SSI" style="rounded=1;fillColor=#23445D;gradientColor=none;strokeColor=none;fontColor=#FFFFFF;fontStyle=1;fontFamily=Tahoma;fontSize=14" parent="1" vertex="1">
          <mxGeometry x="623" y="455.5" width="130" height="60" as="geometry" />
        </mxCell>
        <mxCell id="QBgoFv1q9CA9GYNlwteV-123" style="edgeStyle=orthogonalEdgeStyle;rounded=0;orthogonalLoop=1;jettySize=auto;html=1;exitX=1;exitY=1;exitDx=0;exitDy=0;entryX=0.323;entryY=-0.035;entryDx=0;entryDy=0;entryPerimeter=0;" edge="1" parent="1" source="30" target="12">
          <mxGeometry relative="1" as="geometry" />
        </mxCell>
        <mxCell id="30" value="Programming" style="rounded=1;fillColor=#23445D;gradientColor=none;strokeColor=none;fontColor=#FFFFFF;fontStyle=1;fontFamily=Tahoma;fontSize=14" parent="1" vertex="1">
          <mxGeometry x="623" y="545.5" width="130" height="60" as="geometry" />
        </mxCell>
        <mxCell id="31" value="Client / Server" style="rounded=1;fillColor=#23445D;gradientColor=none;strokeColor=none;fontColor=#FFFFFF;fontStyle=1;fontFamily=Tahoma;fontSize=14" parent="1" vertex="1">
          <mxGeometry x="623" y="635.5" width="130" height="60" as="geometry" />
        </mxCell>
        <mxCell id="32" value="Data Collection" style="rounded=1;fillColor=#23445D;gradientColor=none;strokeColor=none;fontColor=#FFFFFF;fontStyle=1;fontFamily=Tahoma;fontSize=14" parent="1" vertex="1">
          <mxGeometry x="623" y="725.5" width="130" height="60" as="geometry" />
        </mxCell>
        <mxCell id="33" value="XMI" style="rounded=1;fillColor=#23445D;gradientColor=none;strokeColor=none;fontColor=#FFFFFF;fontStyle=1;fontFamily=Tahoma;fontSize=14" parent="1" vertex="1">
          <mxGeometry x="798" y="455.5" width="130" height="60" as="geometry" />
        </mxCell>
        <mxCell id="34" value="Programming" style="rounded=1;fillColor=#23445D;gradientColor=none;strokeColor=none;fontColor=#FFFFFF;fontStyle=1;fontFamily=Tahoma;fontSize=14" parent="1" vertex="1">
          <mxGeometry x="798" y="545.5" width="130" height="60" as="geometry" />
        </mxCell>
        <mxCell id="35" value="HTTP" style="rounded=1;fillColor=#23445D;gradientColor=none;strokeColor=none;fontColor=#FFFFFF;fontStyle=1;fontFamily=Tahoma;fontSize=14" parent="1" vertex="1">
          <mxGeometry x="798" y="635.5" width="130" height="60" as="geometry" />
        </mxCell>
        <mxCell id="36" value="HTS" style="rounded=1;fillColor=#23445D;gradientColor=none;strokeColor=none;fontColor=#FFFFFF;fontStyle=1;fontFamily=Tahoma;fontSize=14" parent="1" vertex="1">
          <mxGeometry x="798" y="725.5" width="130" height="60" as="geometry" />
        </mxCell>
        <mxCell id="37" value="CVS" style="rounded=1;fillColor=#23445D;gradientColor=none;strokeColor=none;fontColor=#FFFFFF;fontStyle=1;fontFamily=Tahoma;fontSize=14" parent="1" vertex="1">
          <mxGeometry x="798" y="815.5" width="130" height="60" as="geometry" />
        </mxCell>
        <mxCell id="38" value="Client / Server" style="rounded=1;fillColor=#23445D;gradientColor=none;strokeColor=none;fontColor=#FFFFFF;fontStyle=1;fontFamily=Tahoma;fontSize=14" parent="1" vertex="1">
          <mxGeometry x="798" y="905.5" width="130" height="60" as="geometry" />
        </mxCell>
        <mxCell id="39" value="Data Collection" style="rounded=1;fillColor=#23445D;gradientColor=none;strokeColor=none;fontColor=#FFFFFF;fontStyle=1;fontFamily=Tahoma;fontSize=14" parent="1" vertex="1">
          <mxGeometry x="798" y="995.5" width="130" height="60" as="geometry" />
        </mxCell>
        <mxCell id="41" value="FAQ" style="rounded=1;fillColor=#23445D;gradientColor=none;strokeColor=none;fontColor=#FFFFFF;fontStyle=1;fontFamily=Tahoma;fontSize=14" parent="1" vertex="1">
          <mxGeometry x="1008" y="455.5" width="130" height="60" as="geometry" />
        </mxCell>
        <mxCell id="42" value="Know Issues" style="rounded=1;fillColor=#23445D;gradientColor=none;strokeColor=none;fontColor=#FFFFFF;fontStyle=1;fontFamily=Tahoma;fontSize=14" parent="1" vertex="1">
          <mxGeometry x="1008" y="545.5" width="130" height="60" as="geometry" />
        </mxCell>
        <mxCell id="43" value="Knowhow" style="rounded=1;fillColor=#23445D;gradientColor=none;strokeColor=none;fontColor=#FFFFFF;fontStyle=1;fontFamily=Tahoma;fontSize=14" parent="1" vertex="1">
          <mxGeometry x="1008" y="635.5" width="130" height="60" as="geometry" />
        </mxCell>
        <mxCell id="44" value="SI" style="rounded=1;fillColor=#23445D;gradientColor=none;strokeColor=none;fontColor=#FFFFFF;fontStyle=1;fontFamily=Tahoma;fontSize=14" parent="1" vertex="1">
          <mxGeometry x="1248" y="455.50000000000006" width="130" height="60" as="geometry" />
        </mxCell>
        <mxCell id="45" value="Programming" style="rounded=1;fillColor=#23445D;gradientColor=none;strokeColor=none;fontColor=#FFFFFF;fontStyle=1;fontFamily=Tahoma;fontSize=14" parent="1" vertex="1">
          <mxGeometry x="1248" y="545.5" width="130" height="60" as="geometry" />
        </mxCell>
        <mxCell id="46" value="Client / Server" style="rounded=1;fillColor=#23445D;gradientColor=none;strokeColor=none;fontColor=#FFFFFF;fontStyle=1;fontFamily=Tahoma;fontSize=14" parent="1" vertex="1">
          <mxGeometry x="1248" y="635.5" width="130" height="60" as="geometry" />
        </mxCell>
        <mxCell id="47" value="Data Collection" style="rounded=1;fillColor=#23445D;gradientColor=none;strokeColor=none;fontColor=#FFFFFF;fontStyle=1;fontFamily=Tahoma;fontSize=14" parent="1" vertex="1">
          <mxGeometry x="1248" y="725.5000000000001" width="130" height="60" as="geometry" />
        </mxCell>
        <mxCell id="48" value="SSI" style="rounded=1;fillColor=#23445D;gradientColor=none;strokeColor=none;fontColor=#FFFFFF;fontStyle=1;fontFamily=Tahoma;fontSize=14" parent="1" vertex="1">
          <mxGeometry x="1423" y="455.50000000000006" width="130" height="60" as="geometry" />
        </mxCell>
        <mxCell id="49" value="Programming" style="rounded=1;fillColor=#23445D;gradientColor=none;strokeColor=none;fontColor=#FFFFFF;fontStyle=1;fontFamily=Tahoma;fontSize=14" parent="1" vertex="1">
          <mxGeometry x="1423" y="545.5" width="130" height="60" as="geometry" />
        </mxCell>
        <mxCell id="50" value="Client / Server" style="rounded=1;fillColor=#23445D;gradientColor=none;strokeColor=none;fontColor=#FFFFFF;fontStyle=1;fontFamily=Tahoma;fontSize=14" parent="1" vertex="1">
          <mxGeometry x="1423" y="635.5" width="130" height="60" as="geometry" />
        </mxCell>
        <mxCell id="51" value="Data Collection" style="rounded=1;fillColor=#23445D;gradientColor=none;strokeColor=none;fontColor=#FFFFFF;fontStyle=1;fontFamily=Tahoma;fontSize=14" parent="1" vertex="1">
          <mxGeometry x="1423" y="725.5000000000001" width="130" height="60" as="geometry" />
        </mxCell>
        <mxCell id="52" value="XMI" style="rounded=1;fillColor=#23445D;gradientColor=none;strokeColor=none;fontColor=#FFFFFF;fontStyle=1;fontFamily=Tahoma;fontSize=14" parent="1" vertex="1">
          <mxGeometry x="1598" y="455.50000000000006" width="130" height="60" as="geometry" />
        </mxCell>
        <mxCell id="53" value="Programming" style="rounded=1;fillColor=#23445D;gradientColor=none;strokeColor=none;fontColor=#FFFFFF;fontStyle=1;fontFamily=Tahoma;fontSize=14" parent="1" vertex="1">
          <mxGeometry x="1598" y="545.5" width="130" height="60" as="geometry" />
        </mxCell>
        <mxCell id="54" value="HTTP" style="rounded=1;fillColor=#23445D;gradientColor=none;strokeColor=none;fontColor=#FFFFFF;fontStyle=1;fontFamily=Tahoma;fontSize=14" parent="1" vertex="1">
          <mxGeometry x="1598" y="635.5" width="130" height="60" as="geometry" />
        </mxCell>
        <mxCell id="55" value="HTS" style="rounded=1;fillColor=#23445D;gradientColor=none;strokeColor=none;fontColor=#FFFFFF;fontStyle=1;fontFamily=Tahoma;fontSize=14" parent="1" vertex="1">
          <mxGeometry x="1598" y="725.5000000000001" width="130" height="60" as="geometry" />
        </mxCell>
        <mxCell id="56" value="CVS" style="rounded=1;fillColor=#23445D;gradientColor=none;strokeColor=none;fontColor=#FFFFFF;fontStyle=1;fontFamily=Tahoma;fontSize=14" parent="1" vertex="1">
          <mxGeometry x="1598" y="815.5000000000001" width="130" height="60" as="geometry" />
        </mxCell>
        <mxCell id="57" value="Client / Server" style="rounded=1;fillColor=#23445D;gradientColor=none;strokeColor=none;fontColor=#FFFFFF;fontStyle=1;fontFamily=Tahoma;fontSize=14" parent="1" vertex="1">
          <mxGeometry x="1598" y="905.5000000000001" width="130" height="60" as="geometry" />
        </mxCell>
        <mxCell id="58" value="Data Collection" style="rounded=1;fillColor=#23445D;gradientColor=none;strokeColor=none;fontColor=#FFFFFF;fontStyle=1;fontFamily=Tahoma;fontSize=14" parent="1" vertex="1">
          <mxGeometry x="1598" y="995.5000000000001" width="130" height="60" as="geometry" />
        </mxCell>
        <mxCell id="59" value="" style="edgeStyle=elbowEdgeStyle;elbow=vertical;strokeWidth=2;rounded=0" parent="1" source="2" target="12" edge="1">
          <mxGeometry x="378" y="225.5" width="100" height="100" as="geometry">
            <mxPoint x="892.9999999999999" y="275.5" as="sourcePoint" />
            <mxPoint x="1497.9999999999998" y="345.5" as="targetPoint" />
          </mxGeometry>
        </mxCell>
        <mxCell id="61" value="" style="edgeStyle=elbowEdgeStyle;elbow=vertical;strokeWidth=2;rounded=0" parent="1" source="2" target="13" edge="1">
          <mxGeometry x="8" y="135.5" width="100" height="100" as="geometry">
            <mxPoint x="8" y="235.5" as="sourcePoint" />
            <mxPoint x="108" y="135.5" as="targetPoint" />
            <Array as="points">
              <mxPoint x="290" y="290" />
            </Array>
          </mxGeometry>
        </mxCell>
        <mxCell id="62" value="" style="edgeStyle=elbowEdgeStyle;elbow=vertical;strokeWidth=2;rounded=0;entryX=0.5;entryY=0;entryDx=0;entryDy=0;" parent="1" source="13" target="14" edge="1">
          <mxGeometry x="8" y="135.5" width="100" height="100" as="geometry">
            <mxPoint x="8" y="235.5" as="sourcePoint" />
            <mxPoint x="153" y="455.5" as="targetPoint" />
          </mxGeometry>
        </mxCell>
        <mxCell id="64" value="" style="edgeStyle=elbowEdgeStyle;elbow=horizontal;strokeWidth=2;rounded=0" parent="1" source="13" target="16" edge="1">
          <mxGeometry x="8" y="135.5" width="100" height="100" as="geometry">
            <mxPoint x="8" y="235.5" as="sourcePoint" />
            <mxPoint x="108" y="135.5" as="targetPoint" />
            <Array as="points">
              <mxPoint x="233" y="435.5" />
            </Array>
          </mxGeometry>
        </mxCell>
        <mxCell id="65" value="" style="edgeStyle=elbowEdgeStyle;elbow=horizontal;strokeWidth=2;rounded=0" parent="1" source="13" target="17" edge="1">
          <mxGeometry x="8" y="135.5" width="100" height="100" as="geometry">
            <mxPoint x="8" y="235.5" as="sourcePoint" />
            <mxPoint x="108" y="135.5" as="targetPoint" />
            <Array as="points">
              <mxPoint x="233" y="475.5" />
            </Array>
          </mxGeometry>
        </mxCell>
        <mxCell id="66" value="" style="edgeStyle=elbowEdgeStyle;elbow=horizontal;strokeWidth=2;rounded=0" parent="1" source="13" target="18" edge="1">
          <mxGeometry x="8" y="135.5" width="100" height="100" as="geometry">
            <mxPoint x="8" y="235.5" as="sourcePoint" />
            <mxPoint x="108" y="135.5" as="targetPoint" />
            <Array as="points">
              <mxPoint x="233" y="525.5" />
            </Array>
          </mxGeometry>
        </mxCell>
        <mxCell id="67" value="" style="edgeStyle=elbowEdgeStyle;elbow=horizontal;strokeWidth=2;rounded=0" parent="1" source="13" target="19" edge="1">
          <mxGeometry x="8" y="135.5" width="100" height="100" as="geometry">
            <mxPoint x="8" y="235.5" as="sourcePoint" />
            <mxPoint x="108" y="135.5" as="targetPoint" />
            <Array as="points">
              <mxPoint x="233" y="575.5" />
            </Array>
          </mxGeometry>
        </mxCell>
        <mxCell id="68" value="" style="edgeStyle=elbowEdgeStyle;elbow=horizontal;strokeWidth=2;rounded=0" parent="1" source="13" target="20" edge="1">
          <mxGeometry x="8" y="135.5" width="100" height="100" as="geometry">
            <mxPoint x="8" y="235.5" as="sourcePoint" />
            <mxPoint x="108" y="135.5" as="targetPoint" />
            <Array as="points">
              <mxPoint x="233" y="615.5" />
            </Array>
          </mxGeometry>
        </mxCell>
        <mxCell id="69" value="" style="edgeStyle=elbowEdgeStyle;elbow=horizontal;strokeWidth=2;rounded=0" parent="1" source="13" target="23" edge="1">
          <mxGeometry x="8" y="135.5" width="100" height="100" as="geometry">
            <mxPoint x="8" y="235.5" as="sourcePoint" />
            <mxPoint x="108" y="135.5" as="targetPoint" />
            <Array as="points">
              <mxPoint x="233" y="665.5" />
            </Array>
          </mxGeometry>
        </mxCell>
        <mxCell id="70" value="" style="edgeStyle=elbowEdgeStyle;elbow=horizontal;strokeWidth=2;rounded=0" parent="1" source="25" target="26" edge="1">
          <mxGeometry x="8" y="135.5" width="100" height="100" as="geometry">
            <mxPoint x="8" y="235.5" as="sourcePoint" />
            <mxPoint x="108" y="135.5" as="targetPoint" />
            <Array as="points">
              <mxPoint x="428" y="535.5" />
            </Array>
          </mxGeometry>
        </mxCell>
        <mxCell id="71" value="" style="edgeStyle=elbowEdgeStyle;elbow=horizontal;strokeWidth=2;rounded=0" parent="1" source="25" target="27" edge="1">
          <mxGeometry x="8" y="135.5" width="100" height="100" as="geometry">
            <mxPoint x="8" y="235.5" as="sourcePoint" />
            <mxPoint x="108" y="135.5" as="targetPoint" />
            <Array as="points">
              <mxPoint x="428" y="575.5" />
            </Array>
          </mxGeometry>
        </mxCell>
        <mxCell id="72" value="" style="edgeStyle=elbowEdgeStyle;elbow=horizontal;strokeWidth=2;rounded=0" parent="1" source="25" target="28" edge="1">
          <mxGeometry x="8" y="135.5" width="100" height="100" as="geometry">
            <mxPoint x="8" y="235.5" as="sourcePoint" />
            <mxPoint x="108" y="135.5" as="targetPoint" />
            <Array as="points">
              <mxPoint x="428" y="615.5" />
            </Array>
          </mxGeometry>
        </mxCell>
        <mxCell id="73" value="" style="edgeStyle=elbowEdgeStyle;elbow=horizontal;strokeWidth=2;rounded=0" parent="1" source="29" target="30" edge="1">
          <mxGeometry x="8" y="135.5" width="100" height="100" as="geometry">
            <mxPoint x="8" y="235.5" as="sourcePoint" />
            <mxPoint x="108" y="135.5" as="targetPoint" />
            <Array as="points">
              <mxPoint x="598" y="535.5" />
            </Array>
          </mxGeometry>
        </mxCell>
        <mxCell id="74" value="" style="edgeStyle=elbowEdgeStyle;elbow=horizontal;strokeWidth=2;rounded=0" parent="1" source="29" target="31" edge="1">
          <mxGeometry x="8" y="135.5" width="100" height="100" as="geometry">
            <mxPoint x="8" y="235.5" as="sourcePoint" />
            <mxPoint x="108" y="135.5" as="targetPoint" />
            <Array as="points">
              <mxPoint x="598" y="575.5" />
            </Array>
          </mxGeometry>
        </mxCell>
        <mxCell id="75" value="" style="edgeStyle=elbowEdgeStyle;elbow=horizontal;strokeWidth=2;rounded=0" parent="1" source="29" target="32" edge="1">
          <mxGeometry x="8" y="135.5" width="100" height="100" as="geometry">
            <mxPoint x="8" y="235.5" as="sourcePoint" />
            <mxPoint x="108" y="135.5" as="targetPoint" />
            <Array as="points">
              <mxPoint x="598" y="615.5" />
            </Array>
          </mxGeometry>
        </mxCell>
        <mxCell id="76" value="" style="edgeStyle=elbowEdgeStyle;elbow=horizontal;strokeWidth=2;rounded=0" parent="1" source="33" target="34" edge="1">
          <mxGeometry x="8" y="135.5" width="100" height="100" as="geometry">
            <mxPoint x="8" y="235.5" as="sourcePoint" />
            <mxPoint x="108" y="135.5" as="targetPoint" />
            <Array as="points">
              <mxPoint x="778" y="535.5" />
            </Array>
          </mxGeometry>
        </mxCell>
        <mxCell id="77" value="" style="edgeStyle=elbowEdgeStyle;elbow=horizontal;strokeWidth=2;rounded=0" parent="1" source="33" target="35" edge="1">
          <mxGeometry x="8" y="135.5" width="100" height="100" as="geometry">
            <mxPoint x="8" y="235.5" as="sourcePoint" />
            <mxPoint x="108" y="135.5" as="targetPoint" />
            <Array as="points">
              <mxPoint x="778" y="575.5" />
            </Array>
          </mxGeometry>
        </mxCell>
        <mxCell id="78" value="" style="edgeStyle=elbowEdgeStyle;elbow=horizontal;strokeWidth=2;rounded=0" parent="1" source="33" target="36" edge="1">
          <mxGeometry x="8" y="135.5" width="100" height="100" as="geometry">
            <mxPoint x="8" y="235.5" as="sourcePoint" />
            <mxPoint x="108" y="135.5" as="targetPoint" />
            <Array as="points">
              <mxPoint x="778" y="625.5" />
            </Array>
          </mxGeometry>
        </mxCell>
        <mxCell id="79" value="" style="edgeStyle=elbowEdgeStyle;elbow=horizontal;strokeWidth=2;rounded=0" parent="1" source="33" target="37" edge="1">
          <mxGeometry x="8" y="135.5" width="100" height="100" as="geometry">
            <mxPoint x="8" y="235.5" as="sourcePoint" />
            <mxPoint x="108" y="135.5" as="targetPoint" />
            <Array as="points">
              <mxPoint x="778" y="665.5" />
            </Array>
          </mxGeometry>
        </mxCell>
        <mxCell id="80" value="" style="edgeStyle=elbowEdgeStyle;elbow=horizontal;strokeWidth=2;rounded=0" parent="1" source="33" target="38" edge="1">
          <mxGeometry x="8" y="135.5" width="100" height="100" as="geometry">
            <mxPoint x="8" y="235.5" as="sourcePoint" />
            <mxPoint x="108" y="135.5" as="targetPoint" />
            <Array as="points">
              <mxPoint x="778" y="705.5" />
            </Array>
          </mxGeometry>
        </mxCell>
        <mxCell id="81" value="" style="edgeStyle=elbowEdgeStyle;elbow=horizontal;strokeWidth=2;rounded=0" parent="1" source="33" target="39" edge="1">
          <mxGeometry x="8" y="135.5" width="100" height="100" as="geometry">
            <mxPoint x="8" y="235.5" as="sourcePoint" />
            <mxPoint x="108" y="135.5" as="targetPoint" />
            <Array as="points">
              <mxPoint x="778" y="755.5" />
            </Array>
          </mxGeometry>
        </mxCell>
        <mxCell id="82" value="" style="edgeStyle=elbowEdgeStyle;elbow=horizontal;strokeWidth=2;rounded=0" parent="1" source="41" target="42" edge="1">
          <mxGeometry x="8" y="135.5" width="100" height="100" as="geometry">
            <mxPoint x="8" y="235.5" as="sourcePoint" />
            <mxPoint x="108" y="135.5" as="targetPoint" />
            <Array as="points">
              <mxPoint x="988" y="535.5" />
            </Array>
          </mxGeometry>
        </mxCell>
        <mxCell id="83" value="" style="edgeStyle=elbowEdgeStyle;elbow=horizontal;strokeWidth=2;rounded=0" parent="1" source="41" target="43" edge="1">
          <mxGeometry x="8" y="135.5" width="100" height="100" as="geometry">
            <mxPoint x="8" y="235.5" as="sourcePoint" />
            <mxPoint x="108" y="135.5" as="targetPoint" />
            <Array as="points">
              <mxPoint x="988" y="585.5" />
            </Array>
          </mxGeometry>
        </mxCell>
        <mxCell id="84" value="" style="edgeStyle=elbowEdgeStyle;elbow=horizontal;strokeWidth=2;rounded=0" parent="1" source="44" target="45" edge="1">
          <mxGeometry x="8" y="135.5" width="100" height="100" as="geometry">
            <mxPoint x="8" y="235.5" as="sourcePoint" />
            <mxPoint x="108" y="135.5" as="targetPoint" />
            <Array as="points">
              <mxPoint x="1228" y="545.5" />
            </Array>
          </mxGeometry>
        </mxCell>
        <mxCell id="85" value="" style="edgeStyle=elbowEdgeStyle;elbow=horizontal;strokeWidth=2;rounded=0" parent="1" source="44" target="46" edge="1">
          <mxGeometry x="8" y="135.5" width="100" height="100" as="geometry">
            <mxPoint x="8" y="235.5" as="sourcePoint" />
            <mxPoint x="108" y="135.5" as="targetPoint" />
            <Array as="points">
              <mxPoint x="1228" y="575.5" />
            </Array>
          </mxGeometry>
        </mxCell>
        <mxCell id="86" value="" style="edgeStyle=elbowEdgeStyle;elbow=horizontal;strokeWidth=2;rounded=0" parent="1" source="44" target="47" edge="1">
          <mxGeometry x="8" y="135.5" width="100" height="100" as="geometry">
            <mxPoint x="8" y="235.5" as="sourcePoint" />
            <mxPoint x="108" y="135.5" as="targetPoint" />
            <Array as="points">
              <mxPoint x="1228" y="625.5" />
            </Array>
          </mxGeometry>
        </mxCell>
        <mxCell id="87" value="" style="edgeStyle=elbowEdgeStyle;elbow=horizontal;strokeWidth=2;rounded=0" parent="1" source="48" target="49" edge="1">
          <mxGeometry x="8" y="135.5" width="100" height="100" as="geometry">
            <mxPoint x="8" y="235.5" as="sourcePoint" />
            <mxPoint x="108" y="135.5" as="targetPoint" />
            <Array as="points">
              <mxPoint x="1398" y="535.5" />
            </Array>
          </mxGeometry>
        </mxCell>
        <mxCell id="88" value="" style="edgeStyle=elbowEdgeStyle;elbow=horizontal;strokeWidth=2;rounded=0" parent="1" source="48" target="50" edge="1">
          <mxGeometry x="8" y="135.5" width="100" height="100" as="geometry">
            <mxPoint x="8" y="235.5" as="sourcePoint" />
            <mxPoint x="108" y="135.5" as="targetPoint" />
            <Array as="points">
              <mxPoint x="1398" y="595.5" />
            </Array>
          </mxGeometry>
        </mxCell>
        <mxCell id="89" value="" style="edgeStyle=elbowEdgeStyle;elbow=horizontal;strokeWidth=2;rounded=0" parent="1" source="48" target="51" edge="1">
          <mxGeometry x="8" y="135.5" width="100" height="100" as="geometry">
            <mxPoint x="8" y="235.5" as="sourcePoint" />
            <mxPoint x="108" y="135.5" as="targetPoint" />
            <Array as="points">
              <mxPoint x="1398" y="625.5" />
            </Array>
          </mxGeometry>
        </mxCell>
        <mxCell id="90" value="" style="edgeStyle=elbowEdgeStyle;elbow=horizontal;strokeWidth=2;rounded=0" parent="1" source="52" target="53" edge="1">
          <mxGeometry x="8" y="135.5" width="100" height="100" as="geometry">
            <mxPoint x="8" y="235.5" as="sourcePoint" />
            <mxPoint x="108" y="135.5" as="targetPoint" />
            <Array as="points">
              <mxPoint x="1578" y="535.5" />
            </Array>
          </mxGeometry>
        </mxCell>
        <mxCell id="91" value="" style="edgeStyle=elbowEdgeStyle;elbow=horizontal;strokeWidth=2;rounded=0" parent="1" source="52" target="54" edge="1">
          <mxGeometry x="8" y="135.5" width="100" height="100" as="geometry">
            <mxPoint x="8" y="235.5" as="sourcePoint" />
            <mxPoint x="108" y="135.5" as="targetPoint" />
            <Array as="points">
              <mxPoint x="1578" y="575.5" />
            </Array>
          </mxGeometry>
        </mxCell>
        <mxCell id="92" value="" style="edgeStyle=elbowEdgeStyle;elbow=horizontal;strokeWidth=2;rounded=0" parent="1" source="52" target="55" edge="1">
          <mxGeometry x="8" y="135.5" width="100" height="100" as="geometry">
            <mxPoint x="8" y="235.5" as="sourcePoint" />
            <mxPoint x="108" y="135.5" as="targetPoint" />
            <Array as="points">
              <mxPoint x="1578" y="625.5" />
            </Array>
          </mxGeometry>
        </mxCell>
        <mxCell id="93" value="" style="edgeStyle=elbowEdgeStyle;elbow=horizontal;strokeWidth=2;rounded=0" parent="1" source="52" target="56" edge="1">
          <mxGeometry x="8" y="135.5" width="100" height="100" as="geometry">
            <mxPoint x="8" y="235.5" as="sourcePoint" />
            <mxPoint x="108" y="135.5" as="targetPoint" />
            <Array as="points">
              <mxPoint x="1578" y="675.5" />
            </Array>
          </mxGeometry>
        </mxCell>
        <mxCell id="94" value="" style="edgeStyle=elbowEdgeStyle;elbow=horizontal;strokeWidth=2;rounded=0" parent="1" source="52" target="57" edge="1">
          <mxGeometry x="8" y="135.5" width="100" height="100" as="geometry">
            <mxPoint x="8" y="235.5" as="sourcePoint" />
            <mxPoint x="108" y="135.5" as="targetPoint" />
            <Array as="points">
              <mxPoint x="1578" y="725.5" />
            </Array>
          </mxGeometry>
        </mxCell>
        <mxCell id="95" value="" style="edgeStyle=elbowEdgeStyle;elbow=horizontal;strokeWidth=2;rounded=0" parent="1" source="52" target="58" edge="1">
          <mxGeometry x="8" y="135.5" width="100" height="100" as="geometry">
            <mxPoint x="8" y="235.5" as="sourcePoint" />
            <mxPoint x="108" y="135.5" as="targetPoint" />
            <Array as="points">
              <mxPoint x="1578" y="765.5" />
            </Array>
          </mxGeometry>
        </mxCell>
        <mxCell id="100" value="" style="edgeStyle=elbowEdgeStyle;elbow=vertical;strokeWidth=2;rounded=0" parent="1" source="12" target="25" edge="1">
          <mxGeometry x="8" y="135.5" width="100" height="100" as="geometry">
            <mxPoint x="8" y="235.5" as="sourcePoint" />
            <mxPoint x="108" y="135.5" as="targetPoint" />
            <Array as="points">
              <mxPoint x="671" y="340" />
            </Array>
          </mxGeometry>
        </mxCell>
        <mxCell id="101" value="" style="edgeStyle=elbowEdgeStyle;elbow=vertical;strokeWidth=2;rounded=0" parent="1" source="12" target="29" edge="1">
          <mxGeometry x="8" y="135.5" width="100" height="100" as="geometry">
            <mxPoint x="8" y="235.5" as="sourcePoint" />
            <mxPoint x="108" y="135.5" as="targetPoint" />
          </mxGeometry>
        </mxCell>
        <mxCell id="102" value="" style="edgeStyle=elbowEdgeStyle;elbow=vertical;strokeWidth=2;rounded=0" parent="1" source="12" target="33" edge="1">
          <mxGeometry x="8" y="135.5" width="100" height="100" as="geometry">
            <mxPoint x="8" y="235.5" as="sourcePoint" />
            <mxPoint x="108" y="135.5" as="targetPoint" />
          </mxGeometry>
        </mxCell>
        <mxCell id="103" value="" style="edgeStyle=elbowEdgeStyle;elbow=vertical;strokeWidth=2;rounded=0" parent="1" source="10" target="41" edge="1">
          <mxGeometry x="8" y="135.5" width="100" height="100" as="geometry">
            <mxPoint x="8" y="235.5" as="sourcePoint" />
            <mxPoint x="108" y="135.5" as="targetPoint" />
          </mxGeometry>
        </mxCell>
        <mxCell id="104" value="" style="edgeStyle=elbowEdgeStyle;elbow=vertical;strokeWidth=2;rounded=0" parent="1" source="4" target="48" edge="1">
          <mxGeometry x="8" y="135.5" width="100" height="100" as="geometry">
            <mxPoint x="8" y="235.5" as="sourcePoint" />
            <mxPoint x="108" y="135.5" as="targetPoint" />
          </mxGeometry>
        </mxCell>
        <mxCell id="105" value="" style="edgeStyle=elbowEdgeStyle;elbow=vertical;strokeWidth=2;rounded=0" parent="1" source="4" target="44" edge="1">
          <mxGeometry x="8" y="135.5" width="100" height="100" as="geometry">
            <mxPoint x="8" y="235.5" as="sourcePoint" />
            <mxPoint x="108" y="135.5" as="targetPoint" />
          </mxGeometry>
        </mxCell>
        <mxCell id="106" value="" style="edgeStyle=elbowEdgeStyle;elbow=vertical;strokeWidth=2;rounded=0" parent="1" source="4" target="52" edge="1">
          <mxGeometry x="8" y="135.5" width="100" height="100" as="geometry">
            <mxPoint x="8" y="235.5" as="sourcePoint" />
            <mxPoint x="108" y="135.5" as="targetPoint" />
          </mxGeometry>
        </mxCell>
        <mxCell id="107" value="" style="edgeStyle=elbowEdgeStyle;elbow=vertical;rounded=0;strokeWidth=2;exitX=0.5;exitY=1;exitDx=0;exitDy=0;entryX=0.5;entryY=0;entryDx=0;entryDy=0;" parent="1" source="14" target="15" edge="1">
          <mxGeometry x="8" y="135.5" width="100" height="100" as="geometry">
            <mxPoint x="130" y="546" as="sourcePoint" />
            <mxPoint x="140" y="650" as="targetPoint" />
            <Array as="points">
              <mxPoint x="60" y="560" />
            </Array>
          </mxGeometry>
        </mxCell>
        <mxCell id="QBgoFv1q9CA9GYNlwteV-127" value="" style="edgeStyle=elbowEdgeStyle;elbow=vertical;rounded=0;strokeWidth=2;exitX=0.5;exitY=1;exitDx=0;exitDy=0;entryX=0.5;entryY=0;entryDx=0;entryDy=0;" edge="1" parent="1" source="14" target="QBgoFv1q9CA9GYNlwteV-126">
          <mxGeometry x="18" y="145.5" width="100" height="100" as="geometry">
            <mxPoint x="132" y="525.5" as="sourcePoint" />
            <mxPoint x="132" y="600" as="targetPoint" />
            <Array as="points">
              <mxPoint x="-70" y="550" />
            </Array>
          </mxGeometry>
        </mxCell>
        <mxCell id="15" value="空調・温度管理" style="rounded=1;fillColor=#23445D;gradientColor=none;strokeColor=none;fontColor=#FFFFFF;fontStyle=1;fontFamily=Tahoma;fontSize=14" parent="1" vertex="1">
          <mxGeometry x="57" y="590" width="130" height="70.5" as="geometry" />
        </mxCell>
        <mxCell id="QBgoFv1q9CA9GYNlwteV-126" value="掃除" style="rounded=1;fillColor=#23445D;gradientColor=none;strokeColor=none;fontColor=#FFFFFF;fontStyle=1;fontFamily=Tahoma;fontSize=14" vertex="1" parent="1">
          <mxGeometry x="-210" y="655" width="130" height="70.5" as="geometry" />
        </mxCell>
      </root>
    </mxGraphModel>
  </diagram>
  <diagram id="2TDu3ymEYU3fCxOXnfvl" name="Page-2">
    <mxGraphModel dx="997" dy="614" grid="1" gridSize="10" guides="1" tooltips="1" connect="1" arrows="1" fold="1" page="1" pageScale="1" pageWidth="827" pageHeight="1169" math="0" shadow="0">
      <root>
        <mxCell id="NIvK4az-cZyA-5AlKXTI-0" />
        <mxCell id="NIvK4az-cZyA-5AlKXTI-1" parent="NIvK4az-cZyA-5AlKXTI-0" />
      </root>
    </mxGraphModel>
  </diagram>
</mxfile>
